<svg xmlns="http://www.w3.org/2000/svg" viewBox="0 0 1200 640" role="img" aria-label="Ascent chart"><rect x="0" y="0" width="1200" height="640" rx="12" fill="#f4f7f1"/><text x="68" y="30" fill="#202421" font-family="Inter, system-ui, sans-serif" font-size="18" font-weight="700" text-anchor="start">Actual vs target</text><line x1="68" y1="586" x2="1176" y2="586" stroke="#d9e0d7" stroke-width="1"/><text x="58" y="590" fill="#5c665f" font-family="Inter, system-ui, sans-serif" font-size="12" font-weight="500" text-anchor="end">0</text><line x1="68" y1="473.6" x2="1176" y2="473.6" stroke="#d9e0d7" stroke-width="1"/><text x="58" y="477.6" fill="#5c665f" font-family="Inter, system-ui, sans-serif" font-size="12" font-weight="500" text-anchor="end">80k</text><line x1="68" y1="361.2" x2="1176" y2="361.2" stroke="#d9e0d7" stroke-width="1"/><text x="58" y="365.2" fill="#5c665f" font-family="Inter, system-ui, sans-serif" font-size="12" font-weight="500" text-anchor="end">160k</text><line x1="68" y1="248.8" x2="1176" y2="248.8" stroke="#d9e0d7" stroke-width="1"/><text x="58" y="252.8" fill="#5c665f" font-family="Inter, system-ui, sans-serif" font-size="12" font-weight="500" text-anchor="end">240k</text><line x1="68" y1="136.4" x2="1176" y2="136.4" stroke="#d9e0d7" stroke-width="1"/><text x="58" y="140.4" fill="#5c665f" font-family="Inter, system-ui, sans-serif" font-size="12" font-weight="500" text-anchor="end">320k</text><line x1="68" y1="24" x2="1176" y2="24" stroke="#d9e0d7" stroke-width="1"/><text x="58" y="28" fill="#5c665f" font-family="Inter, system-ui, sans-serif" font-size="12" font-weight="500" text-anchor="end">400k</text><path d="M 68 24 V 586 H 1176" fill="none" stroke="#aab5ab" stroke-width="1.5"/><text x="68" y="614" fill="#5c665f" font-family="Inter, system-ui, sans-serif" font-size="12" font-weight="500" text-anchor="middle">Jan</text><text x="162.4" y="614" fill="#5c665f" font-family="Inter, system-ui, sans-serif" font-size="12" font-weight="500" text-anchor="middle">Feb</text><text x="247.6" y="614" fill="#5c665f" font-family="Inter, system-ui, sans-serif" font-size="12" font-weight="500" text-anchor="middle">Mar</text><text x="342" y="614" fill="#5c665f" font-family="Inter, system-ui, sans-serif" font-size="12" font-weight="500" text-anchor="middle">Apr</text><text x="433.3" y="614" fill="#5c665f" font-family="Inter, system-ui, sans-serif" font-size="12" font-weight="500" text-anchor="middle">May</text><text x="527.6" y="614" fill="#5c665f" font-family="Inter, system-ui, sans-serif" font-size="12" font-weight="500" text-anchor="middle">Jun</text><text x="619" y="614" fill="#5c665f" font-family="Inter, system-ui, sans-serif" font-size="12" font-weight="500" text-anchor="middle">Jul</text><text x="713.3" y="614" fill="#5c665f" font-family="Inter, system-ui, sans-serif" font-size="12" font-weight="500" text-anchor="middle">Aug</text><text x="807.7" y="614" fill="#5c665f" font-family="Inter, system-ui, sans-serif" font-size="12" font-weight="500" text-anchor="middle">Sep</text><text x="899" y="614" fill="#5c665f" font-family="Inter, system-ui, sans-serif" font-size="12" font-weight="500" text-anchor="middle">Oct</text><text x="993.4" y="614" fill="#5c665f" font-family="Inter, system-ui, sans-serif" font-size="12" font-weight="500" text-anchor="middle">Nov</text><text x="1084.7" y="614" fill="#5c665f" font-family="Inter, system-ui, sans-serif" font-size="12" font-weight="500" text-anchor="middle">Dec</text><polyline fill="none" points="205,585.3 208,584.2 211.1,584.2 214.1,583.2 217.2,583.2 220.2,583.2 223.2,583.2 226.3,583.2 229.3,583.2 232.4,583.2 235.4,582.2 238.5,582.2 241.5,582.2 244.5,582.2 247.6,582.2 250.6,582.2 253.7,582.2 256.7,581.2 259.8,581.2 262.8,581.2 265.9,577.7 268.9,577.7 271.9,577.7 275,577.7 278,577.7 281.1,577.7 284.1,577.7 287.2,577.7 290.2,577.7 293.3,577.7 296.3,577.7 299.3,577.7 302.4,577.7 305.4,577.7 308.5,577.7 311.5,577.7 314.6,577.7 317.6,577.7 320.6,577.7 323.7,577.7 326.7,576.6 329.8,576.6 332.8,576.6 335.9,576.6 338.9,576.6 342,575.5 345,575.5 348,575.5 351.1,575.5 354.1,575.5 357.2,575.5 360.2,574.5 363.3,574.5 366.3,574.5 369.4,574.5 372.4,574.5 375.4,574.5 378.5,574.5 381.5,574.5 384.6,573.4 387.6,573.4 390.7,573.4 393.7,573.4 396.7,573.4 399.8,573.4 402.8,572.4 405.9,572.4 408.9,572.4 412,572.4 415,572.4" stroke="#58b77a" stroke-width="2.5" stroke-linecap="round" stroke-linejoin="round" opacity="0.6"/><polyline fill="none" points="153.2,585.7 156.3,583.9 159.3,580.8 162.4,580.8 165.4,580.4 168.5,579.8 171.5,579.8 174.5,579.8 177.6,579.8 180.6,579.8 183.7,579.8 186.7,579.8 189.8,579.8 192.8,579.8 195.8,579.8 198.9,579.8 201.9,579.8 205,579.8 208,579 211.1,578.6 214.1,578 217.2,577.5 220.2,575.9 223.2,575.9 226.3,575.9 229.3,574.8 232.4,574.4 235.4,574.1 238.5,572.1 241.5,570.2 244.5,570.1 247.6,567.8 250.6,567.5 253.7,565.9 256.7,565.5 259.8,564.7 262.8,564.2 265.9,564.2 268.9,562.9 271.9,561.1 275,559.5 278,558.9 281.1,558.5 284.1,558.5 287.2,558.5 290.2,558.5 293.3,558 296.3,557.5 299.3,557.2 302.4,556.7 305.4,556.3 308.5,556.3 311.5,556.3 314.6,555.8 317.6,554 320.6,552.5 323.7,552 326.7,551.6 329.8,550 332.8,543.5 335.9,543 338.9,542.7 342,542.4 345,541.4 348,541.4 351.1,540 354.1,539.7 357.2,538.7 360.2,538.6 363.3,536.9 366.3,534.9 369.4,534.5 372.4,534.5 375.4,534.5 378.5,534.2 381.5,533.8 384.6,533.6 387.6,533.2 390.7,531.2 393.7,530.5 396.7,527 399.8,525.2 402.8,524.8 405.9,523.8 408.9,522.1 412,521.6 415,521.6" stroke="#4f9cb7" stroke-width="2.5" stroke-linecap="round" stroke-linejoin="round" opacity="0.6"/><polyline fill="none" points="177.6,578.3 180.6,569.5 183.7,564.9 186.7,556.5 189.8,550.7 192.8,541.7 195.8,533.2 198.9,533.2 201.9,526.2 205,526.2 208,526.2 211.1,526.2 214.1,526.2 217.2,526.2 220.2,526.2 223.2,526.2 226.3,522.9 229.3,522.9 232.4,522.9 235.4,522.9 238.5,522.9 241.5,522.9 244.5,522.9 247.6,522.9 250.6,522.9 253.7,522.9 256.7,522.9 259.8,522.9 262.8,522.9 265.9,522.9 268.9,522.9 271.9,522.9 275,522.9 278,522.9 281.1,522.9 284.1,522.9 287.2,522.9 290.2,522.9 293.3,522.9 296.3,522.9 299.3,522.9 302.4,522.9 305.4,522.9 308.5,522.9 311.5,522.9 314.6,522.9 317.6,522.9 320.6,522.9 323.7,522.9 326.7,522.9 329.8,522.9 332.8,522.9 335.9,522.9 338.9,522.9 342,522.9 345,522.9 348,522.9 351.1,522.9 354.1,522.9 357.2,522.9 360.2,522.9 363.3,522.9 366.3,522.9 369.4,522.9 372.4,522.9 375.4,522.9 378.5,522.9 381.5,522.9 384.6,522.9 387.6,522.9 390.7,522.9 393.7,522.9 396.7,522.9 399.8,522.9 402.8,522.9 405.9,522.9 408.9,522.9 412,522.9 415,522.9" stroke="#8d96cf" stroke-width="2.5" stroke-linecap="round" stroke-linejoin="round" opacity="0.6"/><polyline fill="none" points="338.9,586 342,586 345,586 348,586 351.1,586 354.1,586 357.2,586 360.2,586 363.3,586 366.3,586 369.4,586 372.4,586 375.4,586 378.5,586 381.5,585.6 384.6,585.6 387.6,585.6 390.7,585.6 393.7,585.6 396.7,585.6 399.8,585.6 402.8,585.2 405.9,585.2 408.9,585.2 412,585.2 415,585.2" stroke="#b58e24" stroke-width="2.5" stroke-linecap="round" stroke-linejoin="round" opacity="0.6"/><polyline fill="none" points="68,584.6 71,583.2 74.1,581.8 77.1,580.4 80.2,579 83.2,577.6 86.3,576.2 89.3,574.8 92.4,573.4 95.4,572 98.4,570.5 101.5,569.1 104.5,567.7 107.6,566.3 110.6,564.9 113.7,563.5 116.7,562.1 119.7,560.7 122.8,559.3 125.8,557.9 128.9,556.5 131.9,555.1 135,553.7 138,552.3 141.1,550.9 144.1,549.5 147.1,548.1 150.2,546.7 153.2,545.3 156.3,543.9 159.3,542.4 162.4,541 165.4,539.6 168.5,538.2 171.5,536.8 174.5,535.4 177.6,534 180.6,532.6 183.7,531.2 186.7,529.8 189.8,528.4 192.8,527 195.8,525.6 198.9,524.2 201.9,522.8 205,521.4 208,520 211.1,518.6 214.1,517.2 217.2,515.8 220.2,514.3 223.2,512.9 226.3,511.5 229.3,510.1 232.4,508.7 235.4,507.3 238.5,505.9 241.5,504.5 244.5,503.1 247.6,501.7 250.6,500.3 253.7,498.9 256.7,497.5 259.8,496.1 262.8,494.7 265.9,493.3 268.9,491.9 271.9,490.5 275,489.1 278,487.6 281.1,486.2 284.1,484.8 287.2,483.4 290.2,482 293.3,480.6 296.3,479.2 299.3,477.8 302.4,476.4 305.4,475 308.5,473.6 311.5,472.2 314.6,470.8 317.6,469.4 320.6,468 323.7,466.6 326.7,465.2 329.8,463.8 332.8,462.4 335.9,461 338.9,459.6 342,458.1 345,456.7 348,455.3 351.1,453.9 354.1,452.5 357.2,451.1 360.2,449.7 363.3,448.3 366.3,446.9 369.4,445.5 372.4,444.1 375.4,442.7 378.5,441.3 381.5,439.9 384.6,438.5 387.6,437.1 390.7,435.7 393.7,434.3 396.7,432.9 399.8,431.4 402.8,430 405.9,428.6 408.9,427.2 412,425.8 415,424.4 418.1,423 421.1,421.6 424.1,420.2 427.2,418.8 430.2,417.4 433.3,416 436.3,414.6 439.4,413.2 442.4,411.8 445.5,410.4 448.5,409 451.5,407.6 454.6,406.2 457.6,404.8 460.7,403.4 463.7,401.9 466.8,400.5 469.8,399.1 472.8,397.7 475.9,396.3 478.9,394.9 482,393.5 485,392.1 488.1,390.7 491.1,389.3 494.2,387.9 497.2,386.5 500.2,385.1 503.3,383.7 506.3,382.3 509.4,380.9 512.4,379.5 515.5,378.1 518.5,376.7 521.5,375.2 524.6,373.8 527.6,372.4 530.7,371 533.7,369.6 536.8,368.2 539.8,366.8 542.9,365.4 545.9,364 548.9,362.6 552,361.2 555,359.8 558.1,358.4 561.1,357 564.2,355.6 567.2,354.2 570.3,352.8 573.3,351.4 576.3,350 579.4,348.6 582.4,347.1 585.5,345.7 588.5,344.3 591.6,342.9 594.6,341.5 597.6,340.1 600.7,338.7 603.7,337.3 606.8,335.9 609.8,334.5 612.9,333.1 615.9,331.7 619,330.3 622,328.9 625,327.5 628.1,326.1 631.1,324.7 634.2,323.3 637.2,321.9 640.3,320.5 643.3,319.1 646.4,317.6 649.4,316.2 652.4,314.8 655.5,313.4 658.5,312 661.6,310.6 664.6,309.2 667.7,307.8 670.7,306.4 673.7,305 676.8,303.6 679.8,302.2 682.9,300.8 685.9,299.4 689,298 692,296.6 695.1,295.2 698.1,293.8 701.1,292.4 704.2,290.9 707.2,289.5 710.3,288.1 713.3,286.7 716.4,285.3 719.4,283.9 722.5,282.5 725.5,281.1 728.5,279.7 731.6,278.3 734.6,276.9 737.7,275.5 740.7,274.1 743.8,272.7 746.8,271.3 749.8,269.9 752.9,268.5 755.9,267.1 759,265.7 762,264.3 765.1,262.9 768.1,261.4 771.2,260 774.2,258.6 777.2,257.2 780.3,255.8 783.3,254.4 786.4,253 789.4,251.6 792.5,250.2 795.5,248.8 798.5,247.4 801.6,246 804.6,244.6 807.7,243.2 810.7,241.8 813.8,240.4 816.8,239 819.9,237.6 822.9,236.2 825.9,234.8 829,233.3 832,231.9 835.1,230.5 838.1,229.1 841.2,227.7 844.2,226.3 847.3,224.9 850.3,223.5 853.3,222.1 856.4,220.7 859.4,219.3 862.5,217.9 865.5,216.5 868.6,215.1 871.6,213.7 874.6,212.3 877.7,210.9 880.7,209.5 883.8,208.1 886.8,206.6 889.9,205.2 892.9,203.8 896,202.4 899,201 902,199.6 905.1,198.2 908.1,196.8 911.2,195.4 914.2,194 917.3,192.6 920.3,191.2 923.4,189.8 926.4,188.4 929.4,187 932.5,185.6 935.5,184.2 938.6,182.8 941.6,181.4 944.7,180 947.7,178.6 950.7,177.1 953.8,175.7 956.8,174.3 959.9,172.9 962.9,171.5 966,170.1 969,168.7 972.1,167.3 975.1,165.9 978.1,164.5 981.2,163.1 984.2,161.7 987.3,160.3 990.3,158.9 993.4,157.5 996.4,156.1 999.5,154.7 1002.5,153.3 1005.5,151.9 1008.6,150.4 1011.6,149 1014.7,147.6 1017.7,146.2 1020.8,144.8 1023.8,143.4 1026.8,142 1029.9,140.6 1032.9,139.2 1036,137.8 1039,136.4 1042.1,135 1045.1,133.6 1048.2,132.2 1051.2,130.8 1054.2,129.4 1057.3,128 1060.3,126.6 1063.4,125.2 1066.4,123.8 1069.5,122.4 1072.5,120.9 1075.5,119.5 1078.6,118.1 1081.6,116.7 1084.7,115.3 1087.7,113.9 1090.8,112.5 1093.8,111.1 1096.9,109.7 1099.9,108.3 1102.9,106.9 1106,105.5 1109,104.1 1112.1,102.7 1115.1,101.3 1118.2,99.9 1121.2,98.5 1124.3,97.1 1127.3,95.7 1130.3,94.2 1133.4,92.8 1136.4,91.4 1139.5,90 1142.5,88.6 1145.6,87.2 1148.6,85.8 1151.6,84.4 1154.7,83 1157.7,81.6 1160.8,80.2 1163.8,78.8 1166.9,77.4 1169.9,76 1173,74.6 1176,73.2" stroke="#d9485f" stroke-width="2" stroke-linecap="round" stroke-linejoin="round" opacity="1" stroke-dasharray="8 7"/><polyline fill="none" points="68,586 71,586 74.1,586 77.1,586 80.2,586 83.2,586 86.3,586 89.3,586 92.4,586 95.4,586 98.4,586 101.5,586 104.5,586 107.6,586 110.6,586 113.7,586 116.7,586 119.7,586 122.8,586 125.8,586 128.9,586 131.9,586 135,586 138,586 141.1,586 144.1,586 147.1,586 150.2,586 153.2,585.7 156.3,583.9 159.3,580.8 162.4,580.8 165.4,580.4 168.5,579.8 171.5,579.8 174.5,579.8 177.6,572 180.6,563.3 183.7,558.7 186.7,550.3 189.8,544.5 192.8,535.5 195.8,527 198.9,527 201.9,519.9 205,519.2 208,517.4 211.1,517 214.1,515.3 217.2,514.8 220.2,513.3 223.2,513.3 226.3,509.9 229.3,508.8 232.4,508.4 235.4,507.1 238.5,505.1 241.5,503.3 244.5,503.1 247.6,500.8 250.6,500.6 253.7,498.9 256.7,497.6 259.8,496.8 262.8,496.2 265.9,492.8 268.9,491.5 271.9,489.7 275,488.1 278,487.5 281.1,487.1 284.1,487.1 287.2,487.1 290.2,487.1 293.3,486.6 296.3,486.1 299.3,485.7 302.4,485.3 305.4,484.9 308.5,484.9 311.5,484.9 314.6,484.4 317.6,482.6 320.6,481 323.7,480.6 326.7,479.1 329.8,477.5 332.8,470.9 335.9,470.5 338.9,470.1 342,468.8 345,467.8 348,467.8 351.1,466.4 354.1,465.4 357.2,464.5 360.2,463.3 363.3,461.6 366.3,459.7 369.4,459.3 372.4,459.3 375.4,459.3 378.5,458.9 381.5,458.1 384.6,456.8 387.6,456.5 390.7,454.5 393.7,453.7 396.7,450.2 399.8,448.5 402.8,446.5 405.9,445.6 408.9,443.9 412,443.4 415,443.4" stroke="#008c72" stroke-width="3" stroke-linecap="round" stroke-linejoin="round" opacity="1"/><line x1="415" y1="24" x2="415" y2="586" stroke="#1c8ea1" stroke-width="1.5" stroke-dasharray="4 6"/><circle cx="415" cy="443.4" r="5" fill="#008c72"/><text x="423" y="36" fill="#202421" font-family="Inter, system-ui, sans-serif" font-size="12" font-weight="700" text-anchor="start">Today</text></svg>
