<svg xmlns="http://www.w3.org/2000/svg" viewBox="0 0 1200 420" role="img" aria-label="Mileage"><rect x="0" y="0" width="1200" height="420" rx="12" fill="#f4f7f1"/><text x="58" y="30" fill="#202421" font-family="Inter, system-ui, sans-serif" font-size="18" font-weight="700" text-anchor="start">Mileage</text><line x1="58" y1="370" x2="1180" y2="370" stroke="#d9e0d7" stroke-width="1"/><text x="48" y="374" fill="#5c665f" font-family="Inter, system-ui, sans-serif" font-size="12" font-weight="500" text-anchor="end">0.0</text><line x1="58" y1="300" x2="1180" y2="300" stroke="#d9e0d7" stroke-width="1"/><text x="48" y="304" fill="#5c665f" font-family="Inter, system-ui, sans-serif" font-size="12" font-weight="500" text-anchor="end">180</text><line x1="58" y1="230" x2="1180" y2="230" stroke="#d9e0d7" stroke-width="1"/><text x="48" y="234" fill="#5c665f" font-family="Inter, system-ui, sans-serif" font-size="12" font-weight="500" text-anchor="end">360</text><line x1="58" y1="160" x2="1180" y2="160" stroke="#d9e0d7" stroke-width="1"/><text x="48" y="164" fill="#5c665f" font-family="Inter, system-ui, sans-serif" font-size="12" font-weight="500" text-anchor="end">540</text><line x1="58" y1="90" x2="1180" y2="90" stroke="#d9e0d7" stroke-width="1"/><text x="48" y="94" fill="#5c665f" font-family="Inter, system-ui, sans-serif" font-size="12" font-weight="500" text-anchor="end">720</text><line x1="58" y1="20" x2="1180" y2="20" stroke="#d9e0d7" stroke-width="1"/><text x="48" y="24" fill="#5c665f" font-family="Inter, system-ui, sans-serif" font-size="12" font-weight="500" text-anchor="end">900</text><path d="M 58 20 V 370 H 1180" fill="none" stroke="#aab5ab" stroke-width="1.5"/><text x="58" y="398" fill="#5c665f" font-family="Inter, system-ui, sans-serif" font-size="12" font-weight="500" text-anchor="middle">Jan</text><text x="153.6" y="398" fill="#5c665f" font-family="Inter, system-ui, sans-serif" font-size="12" font-weight="500" text-anchor="middle">Feb</text><text x="239.9" y="398" fill="#5c665f" font-family="Inter, system-ui, sans-serif" font-size="12" font-weight="500" text-anchor="middle">Mar</text><text x="335.4" y="398" fill="#5c665f" font-family="Inter, system-ui, sans-serif" font-size="12" font-weight="500" text-anchor="middle">Apr</text><text x="427.9" y="398" fill="#5c665f" font-family="Inter, system-ui, sans-serif" font-size="12" font-weight="500" text-anchor="middle">May</text><text x="523.4" y="398" fill="#5c665f" font-family="Inter, system-ui, sans-serif" font-size="12" font-weight="500" text-anchor="middle">Jun</text><text x="615.9" y="398" fill="#5c665f" font-family="Inter, system-ui, sans-serif" font-size="12" font-weight="500" text-anchor="middle">Jul</text><text x="711.5" y="398" fill="#5c665f" font-family="Inter, system-ui, sans-serif" font-size="12" font-weight="500" text-anchor="middle">Aug</text><text x="807" y="398" fill="#5c665f" font-family="Inter, system-ui, sans-serif" font-size="12" font-weight="500" text-anchor="middle">Sep</text><text x="899.5" y="398" fill="#5c665f" font-family="Inter, system-ui, sans-serif" font-size="12" font-weight="500" text-anchor="middle">Oct</text><text x="995.1" y="398" fill="#5c665f" font-family="Inter, system-ui, sans-serif" font-size="12" font-weight="500" text-anchor="middle">Nov</text><text x="1087.5" y="398" fill="#5c665f" font-family="Inter, system-ui, sans-serif" font-size="12" font-weight="500" text-anchor="middle">Dec</text><polyline fill="none" points="196.7,368.2 199.8,366.6 202.9,366.6 206,365.1 209,365.1 212.1,365.1 215.2,365.1 218.3,365.1 221.4,365.1 224.5,365.1 227.5,363.6 230.6,363.6 233.7,363.6 236.8,363.6 239.9,363.6 242.9,363.6 246,363.6 249.1,362.2 252.2,362.2 255.3,362.2 258.4,357.5 261.4,357.5 264.5,357.5 267.6,357.5 270.7,357.5 273.8,357.5 276.9,357.5 279.9,357.5 283,357.5 286.1,357.5 289.2,357.5 292.3,357.5 295.3,357.5 298.4,357.5 301.5,357.5 304.6,357.5 307.7,357.5 310.8,357.5 313.8,357.5 316.9,357.5 320,356 323.1,356 326.2,356 329.3,356 332.3,356 335.4,354.6 338.5,354.6 341.6,354.6 344.7,354.6 347.7,354.6 350.8,354.6 353.9,353.1 357,353.1 360.1,353.1 363.2,353.1 366.2,353.1 369.3,353.1 372.4,353.1 375.5,353.1 378.6,351.6 381.7,351.6 384.7,351.6 387.8,351.6 390.9,351.6 394,351.6 397.1,350.1 400.1,350.1 403.2,350.1 406.3,350.1 409.4,350.1" stroke="#58b77a" stroke-width="2.5" stroke-linecap="round" stroke-linejoin="round" opacity="0.6"/><polyline fill="none" points="144.3,367.8 147.4,362.5 150.5,352.2 153.6,352.2 156.6,350 159.7,346.3 162.8,346.3 165.9,346.3 169,346.3 172,346.3 175.1,346.3 178.2,346.3 181.3,346.3 184.4,346.3 187.5,346.3 190.5,346.3 193.6,346.3 196.7,346.3 199.8,343.5 202.9,341.1 206,337.4 209,335.2 212.1,330.6 215.2,330.6 218.3,330.6 221.4,326.4 224.5,323.4 227.5,320.7 230.6,313.2 233.7,306.9 236.8,306.3 239.9,297.3 242.9,295.5 246,289.4 249.1,287.1 252.2,282.9 255.3,280.1 258.4,280.1 261.4,277.1 264.5,271.8 267.6,266.6 270.7,264.1 273.8,261.7 276.9,261.7 279.9,261.7 283,261.7 286.1,259.5 289.2,257 292.3,254.6 295.3,251.9 298.4,249.4 301.5,249.4 304.6,249.4 307.7,247.5 310.8,240.7 313.8,236.5 316.9,234.2 320,231.9 323.1,222.3 326.2,201.3 329.3,198.9 332.3,197.5 335.4,195.3 338.5,191.1 341.6,190.9 344.7,185.2 347.7,183.8 350.8,179.5 353.9,178.4 357,173.2 360.1,167.2 363.2,165 366.2,165 369.3,165 372.4,162.7 375.5,160.4 378.6,159 381.7,156.6 384.7,151.6 387.8,148.3 390.9,132.4 394,127.8 397.1,125.1 400.1,120.1 403.2,114.8 406.3,112.1 409.4,112.1" stroke="#4f9cb7" stroke-width="2.5" stroke-linecap="round" stroke-linejoin="round" opacity="0.6"/><polyline fill="none" points="169,366.8 172,362.6 175.1,360.6 178.2,357.1 181.3,354.6 184.4,351 187.5,347.7 190.5,343.6 193.6,340.7 196.7,340.7 199.8,340.7 202.9,340.7 206,340.7 209,340.7 212.1,340.7 215.2,338.2 218.3,335.9 221.4,335.9 224.5,335.9 227.5,335.9 230.6,335.9 233.7,335.9 236.8,335.9 239.9,335.9 242.9,335.9 246,335.9 249.1,335.9 252.2,335.9 255.3,335.9 258.4,335.9 261.4,335.9 264.5,335.9 267.6,335.9 270.7,335.9 273.8,335.9 276.9,330.2 279.9,327.3 283,327.3 286.1,327.3 289.2,327.3 292.3,327.3 295.3,327.3 298.4,327.3 301.5,323.2 304.6,323.2 307.7,323.2 310.8,323.2 313.8,323.2 316.9,323.2 320,323.2 323.1,323.2 326.2,323.2 329.3,323.2 332.3,323.2 335.4,323.2 338.5,323.2 341.6,323.2 344.7,323.2 347.7,323.2 350.8,323.2 353.9,323.2 357,323.2 360.1,323.2 363.2,323.2 366.2,323.2 369.3,323.2 372.4,323.2 375.5,323.2 378.6,323.2 381.7,323.2 384.7,323.2 387.8,323.2 390.9,323.2 394,323.2 397.1,323.2 400.1,323.2 403.2,323.2 406.3,323.2 409.4,323.2" stroke="#8d96cf" stroke-width="2.5" stroke-linecap="round" stroke-linejoin="round" opacity="0.6"/><polyline fill="none" points="58,370 61.1,370 64.2,370 67.2,370 70.3,370 73.4,370 76.5,370 79.6,370 82.7,370 85.7,370 88.8,370 91.9,370 95,370 98.1,370 101.2,370 104.2,370 107.3,370 110.4,370 113.5,370 116.6,370 119.6,370 122.7,370 125.8,370 128.9,370 132,370 135.1,370 138.1,370 141.2,370 144.3,367.8 147.4,362.5 150.5,352.2 153.6,352.2 156.6,350 159.7,346.3 162.8,346.3 165.9,346.3 169,343 172,338.8 175.1,336.8 178.2,333.3 181.3,330.8 184.4,327.2 187.5,323.9 190.5,319.9 193.6,316.9 196.7,315.1 199.8,310.8 202.9,308.4 206,303.2 209,301 212.1,296.4 215.2,293.9 218.3,291.6 221.4,287.4 224.5,284.5 227.5,280.2 230.6,272.7 233.7,266.5 236.8,265.8 239.9,256.9 242.9,255 246,249 249.1,245.2 252.2,240.9 255.3,238.1 258.4,233.5 261.4,230.5 264.5,225.2 267.6,220 270.7,217.5 273.8,215.1 276.9,209.4 279.9,206.5 283,206.5 286.1,204.3 289.2,201.8 292.3,199.5 295.3,196.7 298.4,194.2 301.5,190.2 304.6,190.2 307.7,188.2 310.8,181.4 313.8,177.3 316.9,174.9 320,171.2 323.1,161.6 326.2,140.6 329.3,138.2 332.3,136.8 335.4,133.1 338.5,128.9 341.6,128.6 344.7,123 347.7,120.7 350.8,116.4 353.9,113.8 357,108.6 360.1,102.6 363.2,100.4 366.2,100.4 369.3,100.4 372.4,98.2 375.5,95.8 378.6,92.9 381.7,90.6 384.7,85.5 387.8,82.3 390.9,66.4 394,61.8 397.1,57.6 400.1,52.5 403.2,47.3 406.3,44.6 409.4,44.6" stroke="#1c8ea1" stroke-width="3" stroke-linecap="round" stroke-linejoin="round" opacity="1"/><line x1="409.4" y1="20" x2="409.4" y2="370" stroke="#1c8ea1" stroke-width="1.5" stroke-dasharray="4 6"/><circle cx="409.4" cy="44.6" r="5" fill="#1c8ea1"/><text x="417.4" y="32" fill="#202421" font-family="Inter, system-ui, sans-serif" font-size="12" font-weight="700" text-anchor="start">Today</text></svg>
