<svg xmlns="http://www.w3.org/2000/svg" viewBox="0 0 1200 420" role="img" aria-label="Activity time"><rect x="0" y="0" width="1200" height="420" rx="12" fill="#f4f7f1"/><text x="58" y="30" fill="#202421" font-family="Inter, system-ui, sans-serif" font-size="18" font-weight="700" text-anchor="start">Activity time</text><line x1="58" y1="370" x2="1180" y2="370" stroke="#d9e0d7" stroke-width="1"/><text x="48" y="374" fill="#5c665f" font-family="Inter, system-ui, sans-serif" font-size="12" font-weight="500" text-anchor="end">0m</text><line x1="58" y1="300" x2="1180" y2="300" stroke="#d9e0d7" stroke-width="1"/><text x="48" y="304" fill="#5c665f" font-family="Inter, system-ui, sans-serif" font-size="12" font-weight="500" text-anchor="end">39h</text><line x1="58" y1="230" x2="1180" y2="230" stroke="#d9e0d7" stroke-width="1"/><text x="48" y="234" fill="#5c665f" font-family="Inter, system-ui, sans-serif" font-size="12" font-weight="500" text-anchor="end">78h</text><line x1="58" y1="160" x2="1180" y2="160" stroke="#d9e0d7" stroke-width="1"/><text x="48" y="164" fill="#5c665f" font-family="Inter, system-ui, sans-serif" font-size="12" font-weight="500" text-anchor="end">117h</text><line x1="58" y1="90" x2="1180" y2="90" stroke="#d9e0d7" stroke-width="1"/><text x="48" y="94" fill="#5c665f" font-family="Inter, system-ui, sans-serif" font-size="12" font-weight="500" text-anchor="end">156h</text><line x1="58" y1="20" x2="1180" y2="20" stroke="#d9e0d7" stroke-width="1"/><text x="48" y="24" fill="#5c665f" font-family="Inter, system-ui, sans-serif" font-size="12" font-weight="500" text-anchor="end">194h</text><path d="M 58 20 V 370 H 1180" fill="none" stroke="#aab5ab" stroke-width="1.5"/><text x="58" y="398" fill="#5c665f" font-family="Inter, system-ui, sans-serif" font-size="12" font-weight="500" text-anchor="middle">Jan</text><text x="153.6" y="398" fill="#5c665f" font-family="Inter, system-ui, sans-serif" font-size="12" font-weight="500" text-anchor="middle">Feb</text><text x="239.9" y="398" fill="#5c665f" font-family="Inter, system-ui, sans-serif" font-size="12" font-weight="500" text-anchor="middle">Mar</text><text x="335.4" y="398" fill="#5c665f" font-family="Inter, system-ui, sans-serif" font-size="12" font-weight="500" text-anchor="middle">Apr</text><text x="427.9" y="398" fill="#5c665f" font-family="Inter, system-ui, sans-serif" font-size="12" font-weight="500" text-anchor="middle">May</text><text x="523.4" y="398" fill="#5c665f" font-family="Inter, system-ui, sans-serif" font-size="12" font-weight="500" text-anchor="middle">Jun</text><text x="615.9" y="398" fill="#5c665f" font-family="Inter, system-ui, sans-serif" font-size="12" font-weight="500" text-anchor="middle">Jul</text><text x="711.5" y="398" fill="#5c665f" font-family="Inter, system-ui, sans-serif" font-size="12" font-weight="500" text-anchor="middle">Aug</text><text x="807" y="398" fill="#5c665f" font-family="Inter, system-ui, sans-serif" font-size="12" font-weight="500" text-anchor="middle">Sep</text><text x="899.5" y="398" fill="#5c665f" font-family="Inter, system-ui, sans-serif" font-size="12" font-weight="500" text-anchor="middle">Oct</text><text x="995.1" y="398" fill="#5c665f" font-family="Inter, system-ui, sans-serif" font-size="12" font-weight="500" text-anchor="middle">Nov</text><text x="1087.5" y="398" fill="#5c665f" font-family="Inter, system-ui, sans-serif" font-size="12" font-weight="500" text-anchor="middle">Dec</text><polyline fill="none" points="196.7,368.3 199.8,366.7 202.9,366.7 206,364.7 209,364.7 212.1,364.7 215.2,364.7 218.3,364.7 221.4,364.7 224.5,364.7 227.5,363.1 230.6,363.1 233.7,363.1 236.8,363.1 239.9,363.1 242.9,363.1 246,363.1 249.1,361.7 252.2,361.7 255.3,361.7 258.4,356.2 261.4,356.2 264.5,356.2 267.6,356.2 270.7,356.2 273.8,356.2 276.9,356.2 279.9,356.2 283,356.2 286.1,356.2 289.2,356.2 292.3,356.2 295.3,356.2 298.4,356.2 301.5,356.2 304.6,356.2 307.7,356.2 310.8,356.2 313.8,356.2 316.9,356.2 320,354.8 323.1,354.8 326.2,354.8 329.3,354.8 332.3,354.8 335.4,353.1 338.5,353.1 341.6,353.1 344.7,353.1 347.7,353.1 350.8,353.1 353.9,351.6 357,351.6 360.1,351.6 363.2,351.6 366.2,351.6 369.3,351.6 372.4,351.6 375.5,351.6 378.6,349.9 381.7,349.9 384.7,349.9 387.8,349.9 390.9,349.9 394,349.9 397.1,348.3 400.1,348.3 403.2,348.3 406.3,348.3 409.4,348.3" stroke="#58b77a" stroke-width="2.5" stroke-linecap="round" stroke-linejoin="round" opacity="0.6"/><polyline fill="none" points="144.3,369.2 147.4,365.7 150.5,359.3 153.6,359.3 156.6,358.4 159.7,355.4 162.8,355.4 165.9,355.4 169,355.4 172,355.4 175.1,355.4 178.2,355.4 181.3,355.4 184.4,355.4 187.5,355.4 190.5,355.4 193.6,355.4 196.7,355.4 199.8,353.9 202.9,352.5 206,348.8 209,347.8 212.1,344.9 215.2,344.9 218.3,344.9 221.4,342.9 224.5,340.9 227.5,339.4 230.6,334.1 233.7,329.6 236.8,329.1 239.9,322.5 242.9,320.9 246,317.7 249.1,316.5 252.2,311.7 255.3,308.2 258.4,308.2 261.4,306.5 264.5,303.8 267.6,301 270.7,299.8 273.8,298.2 276.9,298.2 279.9,298.2 283,298.2 286.1,297.4 289.2,294.3 292.3,291.1 295.3,288.3 298.4,286.8 301.5,286.8 304.6,286.8 307.7,285.6 310.8,281.1 313.8,278.7 316.9,277 320,275.5 323.1,265.8 326.2,258.7 329.3,256.6 332.3,255.8 335.4,254.9 338.5,252.7 341.6,252.6 344.7,249.9 347.7,249.1 350.8,245.5 353.9,245 357,242.2 360.1,238.7 363.2,237 366.2,237 369.3,237 372.4,236.1 375.5,235.2 378.6,233.8 381.7,232.6 384.7,228.3 387.8,224 390.9,215.1 394,212.4 397.1,210.1 400.1,205.4 403.2,202.9 406.3,200.5 409.4,200.5" stroke="#4f9cb7" stroke-width="2.5" stroke-linecap="round" stroke-linejoin="round" opacity="0.6"/><polyline fill="none" points="169,358.3 172,343.3 175.1,335.3 178.2,324 181.3,313.6 184.4,300.9 187.5,289.8 190.5,283.1 193.6,273.5 196.7,273.5 199.8,273.5 202.9,273.5 206,273.5 209,273.5 212.1,273.5 215.2,264.4 218.3,255.6 221.4,255.6 224.5,255.6 227.5,255.6 230.6,255.6 233.7,255.6 236.8,255.6 239.9,255.6 242.9,255.6 246,255.6 249.1,255.6 252.2,255.6 255.3,255.6 258.4,255.6 261.4,255.6 264.5,255.6 267.6,255.6 270.7,255.6 273.8,255.6 276.9,247.4 279.9,241.4 283,241.4 286.1,241.4 289.2,241.4 292.3,241.4 295.3,241.4 298.4,241.4 301.5,235.7 304.6,235.7 307.7,235.7 310.8,235.7 313.8,235.7 316.9,235.7 320,235.7 323.1,235.7 326.2,235.7 329.3,235.7 332.3,235.7 335.4,235.7 338.5,235.7 341.6,235.7 344.7,235.7 347.7,235.7 350.8,235.7 353.9,235.7 357,235.7 360.1,235.7 363.2,235.7 366.2,235.7 369.3,235.7 372.4,235.7 375.5,235.7 378.6,235.7 381.7,235.7 384.7,235.7 387.8,235.7 390.9,235.7 394,235.7 397.1,235.7 400.1,235.7 403.2,235.7 406.3,235.7 409.4,235.7" stroke="#8d96cf" stroke-width="2.5" stroke-linecap="round" stroke-linejoin="round" opacity="0.6"/><polyline fill="none" points="332.3,368.5 335.4,368.5 338.5,368.5 341.6,368.5 344.7,368.5 347.7,368.5 350.8,368.5 353.9,368.5 357,368.5 360.1,368.5 363.2,368.5 366.2,368.5 369.3,368.5 372.4,368.5 375.5,365.2 378.6,365.2 381.7,365.2 384.7,365.2 387.8,365.2 390.9,365.2 394,365.2 397.1,362.5 400.1,362.5 403.2,362.5 406.3,362.5 409.4,362.5" stroke="#b58e24" stroke-width="2.5" stroke-linecap="round" stroke-linejoin="round" opacity="0.6"/><polyline fill="none" points="58,370 61.1,370 64.2,370 67.2,370 70.3,370 73.4,370 76.5,370 79.6,370 82.7,370 85.7,370 88.8,370 91.9,370 95,370 98.1,370 101.2,370 104.2,370 107.3,370 110.4,370 113.5,370 116.6,370 119.6,370 122.7,370 125.8,370 128.9,370 132,370 135.1,370 138.1,370 141.2,370 144.3,369.2 147.4,365.7 150.5,359.3 153.6,359.3 156.6,358.4 159.7,355.4 162.8,355.4 165.9,355.4 169,343.7 172,328.7 175.1,320.8 178.2,309.4 181.3,299.1 184.4,286.4 187.5,275.2 190.5,268.5 193.6,258.9 196.7,257.2 199.8,254.1 202.9,252.8 206,247 209,246 212.1,243.2 215.2,234 218.3,225.2 221.4,223.1 224.5,221.1 227.5,218.1 230.6,212.8 233.7,208.3 236.8,207.8 239.9,201.2 242.9,199.6 246,194.6 249.1,192 252.2,187.2 255.3,183.7 258.4,178.2 261.4,176.5 264.5,173.8 267.6,171.1 270.7,169.8 273.8,168.3 276.9,160.1 279.9,154.1 283,154.1 286.1,153.2 289.2,150.1 292.3,146.9 295.3,144.1 298.4,142.7 301.5,137 304.6,137 307.7,135.8 310.8,131.2 313.8,128.8 316.9,127.1 320,124.2 323.1,114.5 326.2,107.4 329.3,105.2 332.3,102.9 335.4,100.3 338.5,98.1 341.6,98 344.7,95.4 347.7,93.1 350.8,89.5 353.9,87.5 357,84.7 360.1,81.3 363.2,79.5 366.2,79.5 369.3,79.5 372.4,78.7 375.5,74.4 378.6,71.4 381.7,70.2 384.7,65.9 387.8,61.6 390.9,52.7 394,49.9 397.1,43.4 400.1,38.7 403.2,36.2 406.3,33.8 409.4,33.8" stroke="#c49416" stroke-width="3" stroke-linecap="round" stroke-linejoin="round" opacity="1"/><line x1="409.4" y1="20" x2="409.4" y2="370" stroke="#1c8ea1" stroke-width="1.5" stroke-dasharray="4 6"/><circle cx="409.4" cy="33.8" r="5" fill="#c49416"/><text x="417.4" y="32" fill="#202421" font-family="Inter, system-ui, sans-serif" font-size="12" font-weight="700" text-anchor="start">Today</text></svg>
